<mxfile host="Electron" modified="2023-12-30T04:40:50.444Z" agent="Mozilla/5.0 (Macintosh; Intel Mac OS X 10_15_7) AppleWebKit/537.36 (KHTML, like Gecko) draw.io/22.1.2 Chrome/114.0.5735.289 Electron/25.9.4 Safari/537.36" etag="dFsfz610tY5ixOSDDbty" version="22.1.2" type="device" pages="3">
  <diagram name="第 1 页" id="xI96V40Ks3w_fqw88pyx">
    <mxGraphModel dx="680" dy="766" grid="0" gridSize="10" guides="1" tooltips="1" connect="1" arrows="1" fold="1" page="1" pageScale="1" pageWidth="827" pageHeight="1169" math="0" shadow="0">
      <root>
        <mxCell id="0" />
        <mxCell id="1" parent="0" />
        <mxCell id="9VTa0cbQqhEIbTFA7NUo-8" style="rounded=0;orthogonalLoop=1;jettySize=auto;html=1;entryX=0.5;entryY=0;entryDx=0;entryDy=0;exitX=0;exitY=1;exitDx=0;exitDy=0;endArrow=none;endFill=0;fillColor=#f5f5f5;strokeColor=#666666;" parent="1" source="9VTa0cbQqhEIbTFA7NUo-1" target="9VTa0cbQqhEIbTFA7NUo-4" edge="1">
          <mxGeometry relative="1" as="geometry" />
        </mxCell>
        <mxCell id="9VTa0cbQqhEIbTFA7NUo-10" style="rounded=0;orthogonalLoop=1;jettySize=auto;html=1;exitX=1;exitY=1;exitDx=0;exitDy=0;entryX=0.5;entryY=0;entryDx=0;entryDy=0;endArrow=none;endFill=0;fillColor=#f5f5f5;strokeColor=#666666;" parent="1" source="9VTa0cbQqhEIbTFA7NUo-1" target="9VTa0cbQqhEIbTFA7NUo-6" edge="1">
          <mxGeometry relative="1" as="geometry" />
        </mxCell>
        <mxCell id="9VTa0cbQqhEIbTFA7NUo-1" value="13" style="ellipse;whiteSpace=wrap;html=1;aspect=fixed;fillColor=#f5f5f5;strokeColor=#666666;fontColor=#333333;" parent="1" vertex="1">
          <mxGeometry x="389" y="163" width="37" height="37" as="geometry" />
        </mxCell>
        <mxCell id="9VTa0cbQqhEIbTFA7NUo-9" style="rounded=0;orthogonalLoop=1;jettySize=auto;html=1;exitX=0.1;exitY=0.74;exitDx=0;exitDy=0;entryX=1;entryY=0;entryDx=0;entryDy=0;exitPerimeter=0;endArrow=none;endFill=0;fillColor=#f5f5f5;strokeColor=#666666;" parent="1" source="9VTa0cbQqhEIbTFA7NUo-4" target="9VTa0cbQqhEIbTFA7NUo-5" edge="1">
          <mxGeometry relative="1" as="geometry" />
        </mxCell>
        <mxCell id="9VTa0cbQqhEIbTFA7NUo-4" value="11" style="ellipse;whiteSpace=wrap;html=1;aspect=fixed;fillColor=#f5f5f5;strokeColor=#666666;fontColor=#333333;" parent="1" vertex="1">
          <mxGeometry x="358" y="213" width="37" height="37" as="geometry" />
        </mxCell>
        <mxCell id="9VTa0cbQqhEIbTFA7NUo-5" value="6" style="ellipse;whiteSpace=wrap;html=1;aspect=fixed;fillColor=#f5f5f5;strokeColor=#666666;fontColor=#333333;" parent="1" vertex="1">
          <mxGeometry x="314" y="257" width="37" height="37" as="geometry" />
        </mxCell>
        <mxCell id="9VTa0cbQqhEIbTFA7NUo-11" style="rounded=0;orthogonalLoop=1;jettySize=auto;html=1;exitX=0;exitY=1;exitDx=0;exitDy=0;entryX=0.5;entryY=0;entryDx=0;entryDy=0;endArrow=none;endFill=0;fillColor=#f5f5f5;strokeColor=#666666;" parent="1" source="9VTa0cbQqhEIbTFA7NUo-6" target="9VTa0cbQqhEIbTFA7NUo-7" edge="1">
          <mxGeometry relative="1" as="geometry" />
        </mxCell>
        <mxCell id="udsqxVNQKgknDjJ-w2Fy-2" style="rounded=0;orthogonalLoop=1;jettySize=auto;html=1;exitX=1;exitY=1;exitDx=0;exitDy=0;entryX=0.5;entryY=0;entryDx=0;entryDy=0;endArrow=none;endFill=0;fillColor=#f5f5f5;strokeColor=#666666;" parent="1" source="9VTa0cbQqhEIbTFA7NUo-6" target="udsqxVNQKgknDjJ-w2Fy-1" edge="1">
          <mxGeometry relative="1" as="geometry" />
        </mxCell>
        <mxCell id="9VTa0cbQqhEIbTFA7NUo-6" value="45" style="ellipse;whiteSpace=wrap;html=1;aspect=fixed;fillColor=#f5f5f5;strokeColor=#666666;fontColor=#333333;" parent="1" vertex="1">
          <mxGeometry x="426" y="213" width="37" height="37" as="geometry" />
        </mxCell>
        <mxCell id="9VTa0cbQqhEIbTFA7NUo-7" value="34" style="ellipse;whiteSpace=wrap;html=1;aspect=fixed;fillColor=#f5f5f5;strokeColor=#666666;fontColor=#333333;" parent="1" vertex="1">
          <mxGeometry x="399" y="257" width="37" height="37" as="geometry" />
        </mxCell>
        <mxCell id="udsqxVNQKgknDjJ-w2Fy-1" value="47" style="ellipse;whiteSpace=wrap;html=1;aspect=fixed;fillColor=#f5f5f5;strokeColor=#666666;fontColor=#333333;" parent="1" vertex="1">
          <mxGeometry x="463" y="257" width="37" height="37" as="geometry" />
        </mxCell>
      </root>
    </mxGraphModel>
  </diagram>
  <diagram id="UgBs2Fyw6y9NJZO_Pnz5" name="第 2 页">
    <mxGraphModel dx="680" dy="766" grid="0" gridSize="10" guides="1" tooltips="1" connect="1" arrows="1" fold="1" page="1" pageScale="1" pageWidth="827" pageHeight="1169" background="none" math="0" shadow="0">
      <root>
        <mxCell id="0" />
        <mxCell id="1" parent="0" />
        <mxCell id="8oVnXRJi3yAX6FCR5tW8-1" value="12" style="rounded=0;whiteSpace=wrap;html=1;fillColor=#f5f5f5;fontColor=#333333;strokeColor=#666666;" vertex="1" parent="1">
          <mxGeometry x="241" y="274" width="31" height="24" as="geometry" />
        </mxCell>
        <mxCell id="8oVnXRJi3yAX6FCR5tW8-24" style="rounded=0;orthogonalLoop=1;jettySize=auto;html=1;exitX=0.5;exitY=1;exitDx=0;exitDy=0;entryX=0.5;entryY=0;entryDx=0;entryDy=0;fillColor=#f5f5f5;strokeColor=#666666;" edge="1" parent="1" source="8oVnXRJi3yAX6FCR5tW8-2" target="8oVnXRJi3yAX6FCR5tW8-13">
          <mxGeometry relative="1" as="geometry" />
        </mxCell>
        <mxCell id="8oVnXRJi3yAX6FCR5tW8-2" value="o" style="rounded=0;whiteSpace=wrap;html=1;fillColor=#f5f5f5;fontColor=#333333;strokeColor=#666666;" vertex="1" parent="1">
          <mxGeometry x="241" y="298" width="21" height="24" as="geometry" />
        </mxCell>
        <mxCell id="8oVnXRJi3yAX6FCR5tW8-25" style="edgeStyle=orthogonalEdgeStyle;rounded=0;orthogonalLoop=1;jettySize=auto;html=1;exitX=0.5;exitY=1;exitDx=0;exitDy=0;entryX=0.5;entryY=0;entryDx=0;entryDy=0;fillColor=#f5f5f5;strokeColor=#666666;" edge="1" parent="1" source="8oVnXRJi3yAX6FCR5tW8-4" target="8oVnXRJi3yAX6FCR5tW8-18">
          <mxGeometry relative="1" as="geometry" />
        </mxCell>
        <mxCell id="8oVnXRJi3yAX6FCR5tW8-4" value="o" style="rounded=0;whiteSpace=wrap;html=1;fillColor=#f5f5f5;fontColor=#333333;strokeColor=#666666;" vertex="1" parent="1">
          <mxGeometry x="262" y="298" width="21" height="24" as="geometry" />
        </mxCell>
        <mxCell id="8oVnXRJi3yAX6FCR5tW8-5" value="23" style="rounded=0;whiteSpace=wrap;html=1;fillColor=#f5f5f5;fontColor=#333333;strokeColor=#666666;" vertex="1" parent="1">
          <mxGeometry x="272" y="274" width="32" height="24" as="geometry" />
        </mxCell>
        <mxCell id="8oVnXRJi3yAX6FCR5tW8-26" style="rounded=0;orthogonalLoop=1;jettySize=auto;html=1;exitX=0.5;exitY=1;exitDx=0;exitDy=0;entryX=0.5;entryY=0;entryDx=0;entryDy=0;fillColor=#f5f5f5;strokeColor=#666666;" edge="1" parent="1" source="8oVnXRJi3yAX6FCR5tW8-6" target="8oVnXRJi3yAX6FCR5tW8-21">
          <mxGeometry relative="1" as="geometry" />
        </mxCell>
        <mxCell id="8oVnXRJi3yAX6FCR5tW8-6" value="o" style="rounded=0;whiteSpace=wrap;html=1;fillColor=#f5f5f5;fontColor=#333333;strokeColor=#666666;" vertex="1" parent="1">
          <mxGeometry x="283" y="298" width="21" height="24" as="geometry" />
        </mxCell>
        <mxCell id="8oVnXRJi3yAX6FCR5tW8-13" value="3" style="rounded=0;whiteSpace=wrap;html=1;fillColor=#f5f5f5;fontColor=#333333;strokeColor=#666666;" vertex="1" parent="1">
          <mxGeometry x="73" y="359" width="42" height="24" as="geometry" />
        </mxCell>
        <mxCell id="8oVnXRJi3yAX6FCR5tW8-33" style="rounded=0;orthogonalLoop=1;jettySize=auto;html=1;exitX=0.5;exitY=1;exitDx=0;exitDy=0;entryX=0.5;entryY=0;entryDx=0;entryDy=0;fillColor=#f5f5f5;strokeColor=#666666;" edge="1" parent="1" source="8oVnXRJi3yAX6FCR5tW8-14" target="8oVnXRJi3yAX6FCR5tW8-27">
          <mxGeometry relative="1" as="geometry" />
        </mxCell>
        <mxCell id="8oVnXRJi3yAX6FCR5tW8-14" value="o" style="rounded=0;whiteSpace=wrap;html=1;fillColor=#f5f5f5;fontColor=#333333;strokeColor=#666666;" vertex="1" parent="1">
          <mxGeometry x="73" y="383" width="21" height="24" as="geometry" />
        </mxCell>
        <mxCell id="8oVnXRJi3yAX6FCR5tW8-34" style="rounded=0;orthogonalLoop=1;jettySize=auto;html=1;exitX=0.5;exitY=1;exitDx=0;exitDy=0;entryX=0.5;entryY=0;entryDx=0;entryDy=0;fillColor=#f5f5f5;strokeColor=#666666;" edge="1" parent="1" source="8oVnXRJi3yAX6FCR5tW8-15" target="8oVnXRJi3yAX6FCR5tW8-30">
          <mxGeometry relative="1" as="geometry" />
        </mxCell>
        <mxCell id="8oVnXRJi3yAX6FCR5tW8-15" value="o" style="rounded=0;whiteSpace=wrap;html=1;fillColor=#f5f5f5;fontColor=#333333;strokeColor=#666666;" vertex="1" parent="1">
          <mxGeometry x="94" y="383" width="21" height="24" as="geometry" />
        </mxCell>
        <mxCell id="8oVnXRJi3yAX6FCR5tW8-18" value="12" style="rounded=0;whiteSpace=wrap;html=1;fillColor=#f5f5f5;fontColor=#333333;strokeColor=#666666;" vertex="1" parent="1">
          <mxGeometry x="251.5" y="359" width="42" height="24" as="geometry" />
        </mxCell>
        <mxCell id="8oVnXRJi3yAX6FCR5tW8-43" style="rounded=0;orthogonalLoop=1;jettySize=auto;html=1;exitX=0.5;exitY=1;exitDx=0;exitDy=0;entryX=0.5;entryY=0;entryDx=0;entryDy=0;fillColor=#f5f5f5;strokeColor=#666666;" edge="1" parent="1" source="8oVnXRJi3yAX6FCR5tW8-19" target="8oVnXRJi3yAX6FCR5tW8-35">
          <mxGeometry relative="1" as="geometry" />
        </mxCell>
        <mxCell id="8oVnXRJi3yAX6FCR5tW8-19" value="o" style="rounded=0;whiteSpace=wrap;html=1;fillColor=#f5f5f5;fontColor=#333333;strokeColor=#666666;" vertex="1" parent="1">
          <mxGeometry x="251.5" y="383" width="21" height="24" as="geometry" />
        </mxCell>
        <mxCell id="8oVnXRJi3yAX6FCR5tW8-44" style="rounded=0;orthogonalLoop=1;jettySize=auto;html=1;exitX=0.75;exitY=1;exitDx=0;exitDy=0;entryX=1;entryY=0;entryDx=0;entryDy=0;fillColor=#f5f5f5;strokeColor=#666666;" edge="1" parent="1" source="8oVnXRJi3yAX6FCR5tW8-20" target="8oVnXRJi3yAX6FCR5tW8-38">
          <mxGeometry relative="1" as="geometry" />
        </mxCell>
        <mxCell id="8oVnXRJi3yAX6FCR5tW8-20" value="o" style="rounded=0;whiteSpace=wrap;html=1;fillColor=#f5f5f5;fontColor=#333333;strokeColor=#666666;" vertex="1" parent="1">
          <mxGeometry x="272.5" y="383" width="21" height="24" as="geometry" />
        </mxCell>
        <mxCell id="8oVnXRJi3yAX6FCR5tW8-21" value="43" style="rounded=0;whiteSpace=wrap;html=1;fillColor=#f5f5f5;fontColor=#333333;strokeColor=#666666;" vertex="1" parent="1">
          <mxGeometry x="437" y="359" width="42" height="24" as="geometry" />
        </mxCell>
        <mxCell id="8oVnXRJi3yAX6FCR5tW8-48" style="rounded=0;orthogonalLoop=1;jettySize=auto;html=1;exitX=0.5;exitY=1;exitDx=0;exitDy=0;entryX=0.5;entryY=0;entryDx=0;entryDy=0;fillColor=#f5f5f5;strokeColor=#666666;" edge="1" parent="1" source="8oVnXRJi3yAX6FCR5tW8-22" target="8oVnXRJi3yAX6FCR5tW8-45">
          <mxGeometry relative="1" as="geometry" />
        </mxCell>
        <mxCell id="8oVnXRJi3yAX6FCR5tW8-22" value="o" style="rounded=0;whiteSpace=wrap;html=1;fillColor=#f5f5f5;fontColor=#333333;strokeColor=#666666;" vertex="1" parent="1">
          <mxGeometry x="437" y="383" width="21" height="24" as="geometry" />
        </mxCell>
        <mxCell id="8oVnXRJi3yAX6FCR5tW8-52" style="rounded=0;orthogonalLoop=1;jettySize=auto;html=1;exitX=0.5;exitY=1;exitDx=0;exitDy=0;entryX=0.5;entryY=0;entryDx=0;entryDy=0;fillColor=#f5f5f5;strokeColor=#666666;" edge="1" parent="1" source="8oVnXRJi3yAX6FCR5tW8-23" target="8oVnXRJi3yAX6FCR5tW8-49">
          <mxGeometry relative="1" as="geometry" />
        </mxCell>
        <mxCell id="8oVnXRJi3yAX6FCR5tW8-23" value="o" style="rounded=0;whiteSpace=wrap;html=1;fillColor=#f5f5f5;fontColor=#333333;strokeColor=#666666;" vertex="1" parent="1">
          <mxGeometry x="458" y="383" width="21" height="24" as="geometry" />
        </mxCell>
        <mxCell id="8oVnXRJi3yAX6FCR5tW8-27" value="1" style="rounded=0;whiteSpace=wrap;html=1;fillColor=#f5f5f5;fontColor=#333333;strokeColor=#666666;" vertex="1" parent="1">
          <mxGeometry x="28" y="438" width="42" height="24" as="geometry" />
        </mxCell>
        <mxCell id="8oVnXRJi3yAX6FCR5tW8-28" value="o" style="rounded=0;whiteSpace=wrap;html=1;fillColor=#f5f5f5;fontColor=#333333;strokeColor=#666666;" vertex="1" parent="1">
          <mxGeometry x="28" y="462" width="21" height="24" as="geometry" />
        </mxCell>
        <mxCell id="8oVnXRJi3yAX6FCR5tW8-29" value="o" style="rounded=0;whiteSpace=wrap;html=1;fillColor=#f5f5f5;fontColor=#333333;strokeColor=#666666;" vertex="1" parent="1">
          <mxGeometry x="49" y="462" width="21" height="24" as="geometry" />
        </mxCell>
        <mxCell id="8oVnXRJi3yAX6FCR5tW8-30" value="11" style="rounded=0;whiteSpace=wrap;html=1;fillColor=#f5f5f5;fontColor=#333333;strokeColor=#666666;" vertex="1" parent="1">
          <mxGeometry x="119" y="438" width="42" height="24" as="geometry" />
        </mxCell>
        <mxCell id="8oVnXRJi3yAX6FCR5tW8-31" value="o" style="rounded=0;whiteSpace=wrap;html=1;fillColor=#f5f5f5;fontColor=#333333;strokeColor=#666666;" vertex="1" parent="1">
          <mxGeometry x="119" y="462" width="21" height="24" as="geometry" />
        </mxCell>
        <mxCell id="8oVnXRJi3yAX6FCR5tW8-32" value="o" style="rounded=0;whiteSpace=wrap;html=1;fillColor=#f5f5f5;fontColor=#333333;strokeColor=#666666;" vertex="1" parent="1">
          <mxGeometry x="140" y="462" width="21" height="24" as="geometry" />
        </mxCell>
        <mxCell id="8oVnXRJi3yAX6FCR5tW8-35" value="12" style="rounded=0;whiteSpace=wrap;html=1;fillColor=#f5f5f5;fontColor=#333333;strokeColor=#666666;" vertex="1" parent="1">
          <mxGeometry x="195" y="438" width="42" height="24" as="geometry" />
        </mxCell>
        <mxCell id="8oVnXRJi3yAX6FCR5tW8-36" value="o" style="rounded=0;whiteSpace=wrap;html=1;fillColor=#f5f5f5;fontColor=#333333;strokeColor=#666666;" vertex="1" parent="1">
          <mxGeometry x="195" y="462" width="21" height="24" as="geometry" />
        </mxCell>
        <mxCell id="8oVnXRJi3yAX6FCR5tW8-37" value="o" style="rounded=0;whiteSpace=wrap;html=1;fillColor=#f5f5f5;fontColor=#333333;strokeColor=#666666;" vertex="1" parent="1">
          <mxGeometry x="216" y="462" width="21" height="24" as="geometry" />
        </mxCell>
        <mxCell id="8oVnXRJi3yAX6FCR5tW8-38" value="13" style="rounded=0;whiteSpace=wrap;html=1;fillColor=#f5f5f5;fontColor=#333333;strokeColor=#666666;" vertex="1" parent="1">
          <mxGeometry x="305" y="438" width="31" height="24" as="geometry" />
        </mxCell>
        <mxCell id="8oVnXRJi3yAX6FCR5tW8-39" value="o" style="rounded=0;whiteSpace=wrap;html=1;fillColor=#f5f5f5;fontColor=#333333;strokeColor=#666666;" vertex="1" parent="1">
          <mxGeometry x="305" y="462" width="21" height="24" as="geometry" />
        </mxCell>
        <mxCell id="8oVnXRJi3yAX6FCR5tW8-40" value="o" style="rounded=0;whiteSpace=wrap;html=1;fillColor=#f5f5f5;fontColor=#333333;strokeColor=#666666;" vertex="1" parent="1">
          <mxGeometry x="326" y="462" width="21" height="24" as="geometry" />
        </mxCell>
        <mxCell id="8oVnXRJi3yAX6FCR5tW8-41" value="22" style="rounded=0;whiteSpace=wrap;html=1;fillColor=#f5f5f5;fontColor=#333333;strokeColor=#666666;" vertex="1" parent="1">
          <mxGeometry x="336" y="438" width="32" height="24" as="geometry" />
        </mxCell>
        <mxCell id="8oVnXRJi3yAX6FCR5tW8-42" value="o" style="rounded=0;whiteSpace=wrap;html=1;fillColor=#f5f5f5;fontColor=#333333;strokeColor=#666666;" vertex="1" parent="1">
          <mxGeometry x="347" y="462" width="21" height="24" as="geometry" />
        </mxCell>
        <mxCell id="8oVnXRJi3yAX6FCR5tW8-45" value="33" style="rounded=0;whiteSpace=wrap;html=1;fillColor=#f5f5f5;fontColor=#333333;strokeColor=#666666;" vertex="1" parent="1">
          <mxGeometry x="396" y="438" width="42" height="24" as="geometry" />
        </mxCell>
        <mxCell id="8oVnXRJi3yAX6FCR5tW8-46" value="o" style="rounded=0;whiteSpace=wrap;html=1;fillColor=#f5f5f5;fontColor=#333333;strokeColor=#666666;" vertex="1" parent="1">
          <mxGeometry x="396" y="462" width="21" height="24" as="geometry" />
        </mxCell>
        <mxCell id="8oVnXRJi3yAX6FCR5tW8-47" value="o" style="rounded=0;whiteSpace=wrap;html=1;fillColor=#f5f5f5;fontColor=#333333;strokeColor=#666666;" vertex="1" parent="1">
          <mxGeometry x="417" y="462" width="21" height="24" as="geometry" />
        </mxCell>
        <mxCell id="8oVnXRJi3yAX6FCR5tW8-49" value="356" style="rounded=0;whiteSpace=wrap;html=1;fillColor=#f5f5f5;fontColor=#333333;strokeColor=#666666;" vertex="1" parent="1">
          <mxGeometry x="482" y="438" width="42" height="24" as="geometry" />
        </mxCell>
        <mxCell id="8oVnXRJi3yAX6FCR5tW8-50" value="o" style="rounded=0;whiteSpace=wrap;html=1;fillColor=#f5f5f5;fontColor=#333333;strokeColor=#666666;" vertex="1" parent="1">
          <mxGeometry x="482" y="462" width="21" height="24" as="geometry" />
        </mxCell>
        <mxCell id="8oVnXRJi3yAX6FCR5tW8-51" value="o" style="rounded=0;whiteSpace=wrap;html=1;fillColor=#f5f5f5;fontColor=#333333;strokeColor=#666666;" vertex="1" parent="1">
          <mxGeometry x="503" y="462" width="21" height="24" as="geometry" />
        </mxCell>
      </root>
    </mxGraphModel>
  </diagram>
  <diagram id="R1c2LsWedIscTY2aO1JZ" name="第 3 页">
    <mxGraphModel dx="723" dy="851" grid="0" gridSize="10" guides="1" tooltips="1" connect="1" arrows="1" fold="1" page="1" pageScale="1" pageWidth="827" pageHeight="1169" math="0" shadow="0">
      <root>
        <mxCell id="0" />
        <mxCell id="1" parent="0" />
        <mxCell id="1F5AmC7iUR-tPx8IJymG-2" value="0x08" style="rounded=0;whiteSpace=wrap;html=1;fillColor=#d5e8d4;strokeColor=#82b366;" vertex="1" parent="1">
          <mxGeometry x="137" y="572" width="42" height="24" as="geometry" />
        </mxCell>
        <mxCell id="1F5AmC7iUR-tPx8IJymG-5" value="2" style="rounded=0;whiteSpace=wrap;html=1;fillColor=#d5e8d4;strokeColor=#82b366;" vertex="1" parent="1">
          <mxGeometry x="137" y="548" width="42" height="24" as="geometry" />
        </mxCell>
        <mxCell id="1F5AmC7iUR-tPx8IJymG-6" value="0x32" style="rounded=0;whiteSpace=wrap;html=1;fillColor=#d5e8d4;strokeColor=#82b366;" vertex="1" parent="1">
          <mxGeometry x="179" y="572" width="42" height="24" as="geometry" />
        </mxCell>
        <mxCell id="1F5AmC7iUR-tPx8IJymG-37" style="edgeStyle=orthogonalEdgeStyle;rounded=0;orthogonalLoop=1;jettySize=auto;html=1;exitX=1;exitY=0.5;exitDx=0;exitDy=0;entryX=0;entryY=0.5;entryDx=0;entryDy=0;startArrow=classic;startFill=1;" edge="1" parent="1" source="1F5AmC7iUR-tPx8IJymG-7" target="1F5AmC7iUR-tPx8IJymG-9">
          <mxGeometry relative="1" as="geometry" />
        </mxCell>
        <mxCell id="1F5AmC7iUR-tPx8IJymG-7" value="11" style="rounded=0;whiteSpace=wrap;html=1;fillColor=#d5e8d4;strokeColor=#82b366;" vertex="1" parent="1">
          <mxGeometry x="179" y="548" width="42" height="24" as="geometry" />
        </mxCell>
        <mxCell id="1F5AmC7iUR-tPx8IJymG-8" value="0x6A" style="rounded=0;whiteSpace=wrap;html=1;fillColor=#d5e8d4;strokeColor=#82b366;" vertex="1" parent="1">
          <mxGeometry x="289" y="572" width="42" height="24" as="geometry" />
        </mxCell>
        <mxCell id="1F5AmC7iUR-tPx8IJymG-38" style="edgeStyle=orthogonalEdgeStyle;rounded=0;orthogonalLoop=1;jettySize=auto;html=1;exitX=1;exitY=0.5;exitDx=0;exitDy=0;entryX=0;entryY=0.5;entryDx=0;entryDy=0;startArrow=classic;startFill=1;" edge="1" parent="1" source="1F5AmC7iUR-tPx8IJymG-9" target="1F5AmC7iUR-tPx8IJymG-13">
          <mxGeometry relative="1" as="geometry" />
        </mxCell>
        <mxCell id="1F5AmC7iUR-tPx8IJymG-9" value="12" style="rounded=0;whiteSpace=wrap;html=1;fillColor=#d5e8d4;strokeColor=#82b366;" vertex="1" parent="1">
          <mxGeometry x="289" y="548" width="42" height="24" as="geometry" />
        </mxCell>
        <mxCell id="1F5AmC7iUR-tPx8IJymG-12" value="0x8B" style="rounded=0;whiteSpace=wrap;html=1;fillColor=#d5e8d4;strokeColor=#82b366;" vertex="1" parent="1">
          <mxGeometry x="403" y="572" width="42" height="24" as="geometry" />
        </mxCell>
        <mxCell id="1F5AmC7iUR-tPx8IJymG-13" value="32" style="rounded=0;whiteSpace=wrap;html=1;fillColor=#d5e8d4;strokeColor=#82b366;" vertex="1" parent="1">
          <mxGeometry x="403" y="548" width="42" height="24" as="geometry" />
        </mxCell>
        <mxCell id="1F5AmC7iUR-tPx8IJymG-14" value="0xE1" style="rounded=0;whiteSpace=wrap;html=1;fillColor=#d5e8d4;strokeColor=#82b366;" vertex="1" parent="1">
          <mxGeometry x="445" y="572" width="42" height="24" as="geometry" />
        </mxCell>
        <mxCell id="1F5AmC7iUR-tPx8IJymG-39" style="edgeStyle=orthogonalEdgeStyle;rounded=0;orthogonalLoop=1;jettySize=auto;html=1;exitX=1;exitY=0.5;exitDx=0;exitDy=0;entryX=0;entryY=0.5;entryDx=0;entryDy=0;startArrow=classic;startFill=1;" edge="1" parent="1" source="1F5AmC7iUR-tPx8IJymG-15" target="1F5AmC7iUR-tPx8IJymG-17">
          <mxGeometry relative="1" as="geometry" />
        </mxCell>
        <mxCell id="1F5AmC7iUR-tPx8IJymG-15" value="45" style="rounded=0;whiteSpace=wrap;html=1;fillColor=#d5e8d4;strokeColor=#82b366;" vertex="1" parent="1">
          <mxGeometry x="445" y="548" width="42" height="24" as="geometry" />
        </mxCell>
        <mxCell id="1F5AmC7iUR-tPx8IJymG-16" value="0x2A8" style="rounded=0;whiteSpace=wrap;html=1;fillColor=#d5e8d4;strokeColor=#82b366;" vertex="1" parent="1">
          <mxGeometry x="554" y="572" width="42" height="24" as="geometry" />
        </mxCell>
        <mxCell id="1F5AmC7iUR-tPx8IJymG-17" value="54" style="rounded=0;whiteSpace=wrap;html=1;fillColor=#d5e8d4;strokeColor=#82b366;" vertex="1" parent="1">
          <mxGeometry x="554" y="548" width="42" height="24" as="geometry" />
        </mxCell>
        <mxCell id="1F5AmC7iUR-tPx8IJymG-18" value="0x2A32" style="rounded=0;whiteSpace=wrap;html=1;fillColor=#d5e8d4;strokeColor=#82b366;" vertex="1" parent="1">
          <mxGeometry x="596" y="572" width="42" height="24" as="geometry" />
        </mxCell>
        <mxCell id="1F5AmC7iUR-tPx8IJymG-19" value="76" style="rounded=0;whiteSpace=wrap;html=1;fillColor=#d5e8d4;strokeColor=#82b366;" vertex="1" parent="1">
          <mxGeometry x="596" y="548" width="42" height="24" as="geometry" />
        </mxCell>
        <mxCell id="1F5AmC7iUR-tPx8IJymG-21" value="12" style="rounded=0;whiteSpace=wrap;html=1;fillColor=#f5f5f5;fontColor=#333333;strokeColor=#666666;" vertex="1" parent="1">
          <mxGeometry x="216.5" y="472" width="42" height="24" as="geometry" />
        </mxCell>
        <mxCell id="1F5AmC7iUR-tPx8IJymG-24" style="rounded=0;orthogonalLoop=1;jettySize=auto;html=1;entryX=0;entryY=0;entryDx=0;entryDy=0;exitX=0.5;exitY=1;exitDx=0;exitDy=0;" edge="1" parent="1" source="1F5AmC7iUR-tPx8IJymG-22" target="1F5AmC7iUR-tPx8IJymG-7">
          <mxGeometry relative="1" as="geometry" />
        </mxCell>
        <mxCell id="1F5AmC7iUR-tPx8IJymG-22" value="o" style="rounded=0;whiteSpace=wrap;html=1;fillColor=#f5f5f5;fontColor=#333333;strokeColor=#666666;" vertex="1" parent="1">
          <mxGeometry x="216.5" y="496" width="21" height="24" as="geometry" />
        </mxCell>
        <mxCell id="1F5AmC7iUR-tPx8IJymG-25" style="rounded=0;orthogonalLoop=1;jettySize=auto;html=1;exitX=0.5;exitY=1;exitDx=0;exitDy=0;entryX=0.5;entryY=0;entryDx=0;entryDy=0;" edge="1" parent="1" source="1F5AmC7iUR-tPx8IJymG-23" target="1F5AmC7iUR-tPx8IJymG-9">
          <mxGeometry relative="1" as="geometry" />
        </mxCell>
        <mxCell id="1F5AmC7iUR-tPx8IJymG-23" value="o" style="rounded=0;whiteSpace=wrap;html=1;fillColor=#f5f5f5;fontColor=#333333;strokeColor=#666666;" vertex="1" parent="1">
          <mxGeometry x="237.5" y="496" width="21" height="24" as="geometry" />
        </mxCell>
        <mxCell id="1F5AmC7iUR-tPx8IJymG-26" value="54" style="rounded=0;whiteSpace=wrap;html=1;fillColor=#f5f5f5;fontColor=#333333;strokeColor=#666666;" vertex="1" parent="1">
          <mxGeometry x="499" y="469" width="42" height="24" as="geometry" />
        </mxCell>
        <mxCell id="1F5AmC7iUR-tPx8IJymG-29" style="rounded=0;orthogonalLoop=1;jettySize=auto;html=1;exitX=0.5;exitY=1;exitDx=0;exitDy=0;entryX=0;entryY=0;entryDx=0;entryDy=0;" edge="1" parent="1" source="1F5AmC7iUR-tPx8IJymG-27" target="1F5AmC7iUR-tPx8IJymG-15">
          <mxGeometry relative="1" as="geometry" />
        </mxCell>
        <mxCell id="1F5AmC7iUR-tPx8IJymG-27" value="o" style="rounded=0;whiteSpace=wrap;html=1;fillColor=#f5f5f5;fontColor=#333333;strokeColor=#666666;" vertex="1" parent="1">
          <mxGeometry x="499" y="493" width="21" height="24" as="geometry" />
        </mxCell>
        <mxCell id="1F5AmC7iUR-tPx8IJymG-30" style="rounded=0;orthogonalLoop=1;jettySize=auto;html=1;exitX=0.5;exitY=1;exitDx=0;exitDy=0;entryX=0;entryY=0;entryDx=0;entryDy=0;" edge="1" parent="1" source="1F5AmC7iUR-tPx8IJymG-28" target="1F5AmC7iUR-tPx8IJymG-19">
          <mxGeometry relative="1" as="geometry" />
        </mxCell>
        <mxCell id="1F5AmC7iUR-tPx8IJymG-28" value="o" style="rounded=0;whiteSpace=wrap;html=1;fillColor=#f5f5f5;fontColor=#333333;strokeColor=#666666;" vertex="1" parent="1">
          <mxGeometry x="520" y="493" width="21" height="24" as="geometry" />
        </mxCell>
        <mxCell id="1F5AmC7iUR-tPx8IJymG-31" value="32" style="rounded=0;whiteSpace=wrap;html=1;fillColor=#f5f5f5;fontColor=#333333;strokeColor=#666666;" vertex="1" parent="1">
          <mxGeometry x="354" y="389" width="42" height="24" as="geometry" />
        </mxCell>
        <mxCell id="1F5AmC7iUR-tPx8IJymG-34" style="rounded=0;orthogonalLoop=1;jettySize=auto;html=1;exitX=0.5;exitY=1;exitDx=0;exitDy=0;entryX=0.5;entryY=0;entryDx=0;entryDy=0;" edge="1" parent="1" source="1F5AmC7iUR-tPx8IJymG-32" target="1F5AmC7iUR-tPx8IJymG-21">
          <mxGeometry relative="1" as="geometry" />
        </mxCell>
        <mxCell id="1F5AmC7iUR-tPx8IJymG-32" value="o" style="rounded=0;whiteSpace=wrap;html=1;fillColor=#f5f5f5;fontColor=#333333;strokeColor=#666666;" vertex="1" parent="1">
          <mxGeometry x="354" y="413" width="21" height="24" as="geometry" />
        </mxCell>
        <mxCell id="1F5AmC7iUR-tPx8IJymG-35" style="rounded=0;orthogonalLoop=1;jettySize=auto;html=1;exitX=0.5;exitY=1;exitDx=0;exitDy=0;entryX=0.5;entryY=0;entryDx=0;entryDy=0;" edge="1" parent="1" source="1F5AmC7iUR-tPx8IJymG-33" target="1F5AmC7iUR-tPx8IJymG-26">
          <mxGeometry relative="1" as="geometry" />
        </mxCell>
        <mxCell id="1F5AmC7iUR-tPx8IJymG-33" value="o" style="rounded=0;whiteSpace=wrap;html=1;fillColor=#f5f5f5;fontColor=#333333;strokeColor=#666666;" vertex="1" parent="1">
          <mxGeometry x="375" y="413" width="21" height="24" as="geometry" />
        </mxCell>
      </root>
    </mxGraphModel>
  </diagram>
</mxfile>
